<svg xmlns="http://www.w3.org/2000/svg" width="189.767" height="35.142" viewBox="0 0 189.767 35.142">
    <defs>
        <clipPath id="clip-path">
            <path id="Path_4" d="M9.5-72.238a5.575 5.575 0 0 1 .686 2.536q0 2.978-4.187 4.844l-2.133-1.829a4.106 4.106 0 0 0 2.069-3.357 4.674 4.674 0 0 0-.607-2.193zM172.2-100a17.987 17.987 0 0 1 2.2.138v8.65h13.023a17.412 17.412 0 0 1 1.8 4.394H170v-8.611a13.2 13.2 0 0 0-10.808 10.808h30.437a17.9 17.9 0 0 1 .138 2.2A17.566 17.566 0 0 1 172.2-64.858 17.862 17.862 0 0 1 170-65v-8.65h-13.033a17.763 17.763 0 0 1-1.791-4.394h19.215v8.611a13.182 13.182 0 0 0 10.8-10.808h-30.438a17.862 17.862 0 0 1-.128-2.187A17.568 17.568 0 0 1 172.2-100zM8.982-98.243a24.363 24.363 0 0 1 4.267.429l-.244 4.082a14.808 14.808 0 0 0-4.228-.649 4.582 4.582 0 0 0-2.942.828 2.533 2.533 0 0 0-1.013 2.106c0 1.148.867 2.116 2.591 2.9 2.932 1.387 4.521 2.156 4.754 2.325a5.852 5.852 0 0 1 2.591 5.05 7.187 7.187 0 0 1-2.484 5.659 10.186 10.186 0 0 1-6.859 2.216 18.748 18.748 0 0 1-4.822-.569l.273-4.332a14.962 14.962 0 0 0 4.939.858c2.728 0 4.092-1.068 4.092-3.184 0-1.218-.857-2.226-2.553-3.014q-4.486-2.006-4.793-2.216A6.038 6.038 0 0 1 0-90.977a6.53 6.53 0 0 1 2.377-5.26 10.019 10.019 0 0 1 6.605-2.006zm15.875 6.677a7.073 7.073 0 0 1 5.69 2.292 8.238 8.238 0 0 1 1.784 5.537 15.1 15.1 0 0 1-.14 2.046H21.17q-.03 4.868 4.9 4.868a12.317 12.317 0 0 0 5.182-1.092l.438 3.491a17.311 17.311 0 0 1-6.367 1.131q-8.8 0-8.809-8.96a9.9 9.9 0 0 1 2.222-6.708 7.589 7.589 0 0 1 6.121-2.605zm79.2 0q4.027 0 5.762 1.623a5.939 5.939 0 0 1 1.475 4.475v7.308c0 1.554.039 3.059.108 4.514h-4.268a19.83 19.83 0 0 1 .177-2.96l-.039-.039a5.152 5.152 0 0 1-2.153 2.439 6.57 6.57 0 0 1-3.461.915 5.262 5.262 0 0 1-3.707-1.239 4.437 4.437 0 0 1-1.308-3.383 5.362 5.362 0 0 1 2.832-4.8 14.187 14.187 0 0 1 7.306-1.623v-.954q0-2.788-3.432-2.783a10.145 10.145 0 0 0-5.184 1.373l-.393-3.777a18.444 18.444 0 0 1 6.283-1.089zm-20.426-8.083v7.522a18.331 18.331 0 0 1-.288 3.409h.04q1.458-3.1 5.336-3.1a5.8 5.8 0 0 1 4.85 2.145 9.659 9.659 0 0 1 1.666 6.043 10.222 10.222 0 0 1-2.489 7.209 9.277 9.277 0 0 1-7.091 2.772 24.931 24.931 0 0 1-6.585-.842v-25.158zm-25.4 8.083a7.059 7.059 0 0 1 5.69 2.292 8.191 8.191 0 0 1 1.794 5.537 13.639 13.639 0 0 1-.149 2.046H54.555q-.045 4.868 4.893 4.868a12.362 12.362 0 0 0 5.192-1.092l.428 3.491a17.311 17.311 0 0 1-6.368 1.132q-8.8 0-8.8-8.96a9.941 9.941 0 0 1 2.212-6.708 7.6 7.6 0 0 1 6.12-2.606zm-19.218-8.083v15.679l5.187-7.378h5.58l-6.228 8.083 6.7 9.622h-5.73L39.013-82.4v8.758h-4.574v-26.007zm38.651 8.106L77.45-87.1a5.4 5.4 0 0 0-1.078-.108q-3.729 0-3.729 6.415v7.152h-4.468V-91.16H72.4a20.876 20.876 0 0 1-.32 3.527h.078q1.602-4.229 5.506-3.91zm47.068-.023q5.294 0 5.294 5.607v12.316h-4.546v-11.224q0-2.921-2.183-2.921a3.527 3.527 0 0 0-2.931 1.692 6.556 6.556 0 0 0-1.216 3.984v8.469h-4.586v-17.539h4.336a17.071 17.071 0 0 1-.249 3.108l.03.03a6.3 6.3 0 0 1 6.051-3.522zm13.382-8.083v15.679l5.192-7.378h5.58l-6.228 8.083 6.7 9.622h-5.73l-5.515-8.757v8.758h-4.573v-26.007zm-31.282 18.274q-5.969 0-5.974 2.733c0 1.227.715 1.835 2.136 1.835a3.531 3.531 0 0 0 2.791-1.314 4.235 4.235 0 0 0 1.048-2.84zM87.555-87.7a3.289 3.289 0 0 0-2.855 1.691 7.174 7.174 0 0 0-1.061 3.943v4.946a8.27 8.27 0 0 0 2.448.315c3.06 0 4.58-1.986 4.58-5.958q-.001-4.942-3.112-4.937zm-29.549-.351a3.222 3.222 0 0 0-2.408.96 4.165 4.165 0 0 0-1.128 2.554h6.676a3.548 3.548 0 0 0-.8-2.554 2.932 2.932 0 0 0-2.34-.961zm-33.386 0a3.214 3.214 0 0 0-2.4.96 4.118 4.118 0 0 0-1.138 2.554h6.678a3.5 3.5 0 0 0-.8-2.554 2.918 2.918 0 0 0-2.339-.961z" class="cls-1" transform="translate(0 100)"/>
        </clipPath>
        <clipPath id="clip-path-2">
            <path id="Path_3" d="M-450-202.146H56.045V-562H-450z" class="cls-1" transform="translate(450 562)"/>
        </clipPath>
        <style>
            .cls-1{fill:#007a3d}
        </style>
    </defs>
    <g id="Logo" transform="translate(0 100)">
        <g id="Group_2" clip-path="url(#clip-path)" transform="translate(0 -100)">
            <g id="Group_1" clip-path="url(#clip-path-2)" transform="translate(-158.139 -162.356)">
                <path id="Path_2" d="M-5-66.344h193.281V-105H-5z" class="cls-1" transform="translate(161.382 265.599)"/>
            </g>
        </g>
    </g>
</svg>
