<svg xmlns="http://www.w3.org/2000/svg" width="44.001" height="51.637" viewBox="0 0 44.001 51.637">
    <defs>
        <style>
            .cls-1{fill:#127a3d}.cls-3{fill:#fff}
        </style>
    </defs>
    <g id="Group_3599" transform="translate(-96.001 -280)">
        <path id="Union_16" d="M6810.723-565.077l-4.782-7.769A22.01 22.01 0 0 1 6790-594a22 22 0 0 1 22-22 22 22 0 0 1 22 22 22.009 22.009 0 0 1-15.941 21.155l-4.782 7.769a1.486 1.486 0 0 1-1.277.714 1.486 1.486 0 0 1-1.277-.715z" class="cls-1" transform="translate(-6693.998 896)"/>
        <g id="Group_3497" transform="translate(31 -70)">
            <g id="atm" transform="translate(77.3 347)">
                <path id="Union_17" d="M13834.3-1796.66a.6.6 0 0 1-.6-.6v-13.14a.6.6 0 0 1 .6-.6h10.755a.6.6 0 0 1 .6.6v13.145a.6.6 0 0 1-.6.6z" class="cls-3" transform="translate(-13830.115 1830.585)"/>
                <g id="Group_3585" transform="translate(0 16)">
                    <g id="Group_3584">
                        <path id="Path_7657" d="M17.923 16H1.195A1.2 1.2 0 0 0 0 17.195v3.585a1.2 1.2 0 0 0 1.195 1.195H2.39v-2.39a1.2 1.2 0 0 1 1.195-1.195h11.949a1.2 1.2 0 0 1 1.195 1.195v2.39h1.195a1.2 1.2 0 0 0 1.195-1.195v-3.585A1.2 1.2 0 0 0 17.923 16z" class="cls-3" transform="translate(0 -16)"/>
                    </g>
                </g>
            </g>
            <g id="Group_3597" transform="translate(-4.537 0.587)">
                <g id="Group_3228" transform="translate(90.03 370.166)">
                    <path id="Path_7472" d="M16.526 20.237a.527.527 0 0 1-.526-.526v-6.155h1.052v5.494c.847-.24 2.279-.816 2.279-1.969h1.052c0 2.525-3.621 3.125-3.775 3.15a.539.539 0 0 1-.082.006z" class="cls-1" transform="translate(-16 -13.75)"/>
                </g>
                <g id="Group_3229" transform="translate(88.434 370.562)">
                    <path id="Path_7473" d="M0 0h3.777v1.052H0z" class="cls-1" transform="translate(0 1.401) rotate(-21.77)"/>
                </g>
                <g id="Group_3230" transform="translate(88.434 372.316)">
                    <path id="Path_7474" d="M0 0h3.777v1.052H0z" class="cls-1" transform="translate(0 1.401) rotate(-21.77)"/>
                </g>
            </g>
        </g>
    </g>
</svg>
